<mxfile host="app.diagrams.net" modified="2023-09-28T17:09:07.513Z" agent="Mozilla/5.0 (X11; Linux x86_64; rv:109.0) Gecko/20100101 Firefox/115.0" etag="8RLkD6-gQ6pGQqQuv9iD" version="21.7.5" type="device">
  <diagram name="Page-1" id="Wmdrt5b4WihJDskSo4td">
    <mxGraphModel dx="673" dy="419" grid="1" gridSize="10" guides="1" tooltips="1" connect="1" arrows="1" fold="1" page="1" pageScale="1" pageWidth="850" pageHeight="1100" math="1" shadow="0">
      <root>
        <mxCell id="0" />
        <mxCell id="1" parent="0" />
        <mxCell id="h3qlczv5g9WbPRO4zrkN-1" value="&lt;font style=&quot;font-size: 9px;&quot;&gt;sigmoid&lt;/font&gt;" style="ellipse;whiteSpace=wrap;html=1;" vertex="1" parent="1">
          <mxGeometry x="480" y="340" width="40" height="40" as="geometry" />
        </mxCell>
        <mxCell id="h3qlczv5g9WbPRO4zrkN-2" value="" style="endArrow=classic;html=1;rounded=0;entryX=0;entryY=0.5;entryDx=0;entryDy=0;exitX=1;exitY=0.5;exitDx=0;exitDy=0;" edge="1" parent="1">
          <mxGeometry width="50" height="50" relative="1" as="geometry">
            <mxPoint x="400" y="355" as="sourcePoint" />
            <mxPoint x="480" y="355" as="targetPoint" />
          </mxGeometry>
        </mxCell>
        <mxCell id="h3qlczv5g9WbPRO4zrkN-3" value="" style="endArrow=classic;html=1;rounded=0;entryX=0;entryY=0.5;entryDx=0;entryDy=0;exitX=1;exitY=0.5;exitDx=0;exitDy=0;" edge="1" parent="1">
          <mxGeometry width="50" height="50" relative="1" as="geometry">
            <mxPoint x="520" y="355" as="sourcePoint" />
            <mxPoint x="600" y="355" as="targetPoint" />
          </mxGeometry>
        </mxCell>
        <mxCell id="h3qlczv5g9WbPRO4zrkN-4" value="&lt;div&gt;`x`&lt;/div&gt;" style="text;html=1;strokeColor=none;fillColor=none;align=center;verticalAlign=middle;whiteSpace=wrap;rounded=0;" vertex="1" parent="1">
          <mxGeometry x="410" y="330" width="60" height="30" as="geometry" />
        </mxCell>
        <mxCell id="h3qlczv5g9WbPRO4zrkN-5" value="&lt;div&gt;`y`&lt;/div&gt;" style="text;html=1;strokeColor=none;fillColor=none;align=center;verticalAlign=middle;whiteSpace=wrap;rounded=0;" vertex="1" parent="1">
          <mxGeometry x="530" y="330" width="60" height="30" as="geometry" />
        </mxCell>
        <mxCell id="h3qlczv5g9WbPRO4zrkN-6" value="" style="endArrow=classic;html=1;rounded=0;exitX=-0.033;exitY=0.491;exitDx=0;exitDy=0;exitPerimeter=0;entryX=1;entryY=0.5;entryDx=0;entryDy=0;strokeColor=#C01C28;" edge="1" parent="1">
          <mxGeometry width="50" height="50" relative="1" as="geometry">
            <mxPoint x="478.68000000000006" y="365.6400000000001" as="sourcePoint" />
            <mxPoint x="400.0000000000016" y="366" as="targetPoint" />
          </mxGeometry>
        </mxCell>
        <mxCell id="h3qlczv5g9WbPRO4zrkN-7" value="" style="endArrow=classic;html=1;rounded=0;exitX=-0.033;exitY=0.491;exitDx=0;exitDy=0;exitPerimeter=0;entryX=1;entryY=0.5;entryDx=0;entryDy=0;strokeColor=#C01C28;" edge="1" parent="1">
          <mxGeometry width="50" height="50" relative="1" as="geometry">
            <mxPoint x="598.34" y="366.0000000000001" as="sourcePoint" />
            <mxPoint x="519.6600000000016" y="366.36" as="targetPoint" />
          </mxGeometry>
        </mxCell>
        <mxCell id="h3qlczv5g9WbPRO4zrkN-8" value="&lt;div&gt;&lt;font color=&quot;#cc0000&quot;&gt;`frac{\partialL}{\partialy}y^2\exp(-x)`&lt;/font&gt;&lt;/div&gt;" style="text;html=1;strokeColor=none;fillColor=none;align=center;verticalAlign=middle;whiteSpace=wrap;rounded=0;" vertex="1" parent="1">
          <mxGeometry x="410" y="380" width="60" height="30" as="geometry" />
        </mxCell>
        <mxCell id="h3qlczv5g9WbPRO4zrkN-9" value="&lt;div&gt;&lt;font color=&quot;#cc0000&quot;&gt;`frac{\partialL}{\partialy}`&lt;/font&gt;&lt;/div&gt;" style="text;html=1;strokeColor=none;fillColor=none;align=center;verticalAlign=middle;whiteSpace=wrap;rounded=0;" vertex="1" parent="1">
          <mxGeometry x="530" y="380" width="60" height="30" as="geometry" />
        </mxCell>
      </root>
    </mxGraphModel>
  </diagram>
</mxfile>
